<svg id="Ebene_1" data-name="Ebene 1" xmlns="http://www.w3.org/2000/svg" viewBox="0 0 747.38 188.44"><defs><style>.cls-1{fill:#3c8bd9;}.cls-2{fill:#fabc04;}.cls-3{fill:#34a852;}.cls-4{fill:#e1c025;}.cls-5{fill:#757575;}</style></defs><g id="Ebene_1-2" data-name="Ebene 1-2"><path class="cls-1" d="M379.23,298.64a37.1,37.1,0,0,1,8.88-13.94,34.51,34.51,0,0,1,54.22,8c8.32,15.21,17.06,29.91,25.69,44.87l42.87,74.61a34.21,34.21,0,0,1-24.59,50.7c-14.46,2.22-28-4.51-35.49-17.46L413.07,380a7.11,7.11,0,0,0-.9-1.27,12.6,12.6,0,0,1-2.72-4.11l-27.81-48a34.42,34.42,0,0,1-4.51-18.28,24.3,24.3,0,0,1,2.1-9.64" transform="translate(-309.31 -274.95)"/><path class="cls-2" d="M379.23,298.64a55.72,55.72,0,0,0-1.61,9.14,36.11,36.11,0,0,0,5.07,19.48L410,374.55c.81,1.41,1.51,2.82,2.32,4.11L397.2,404.5l-21,36.21c-.3,0-.4-.2-.5-.4a6.73,6.73,0,0,1,.29-1.9c3.43-12.45.61-23.49-7.92-33a31.35,31.35,0,0,0-19.48-10.14A33.64,33.64,0,0,0,322,402.73c-1.39,1.11-2.3,2.62-4,3.53a.7.7,0,0,1-.61-.41l11.85-20.69,49.44-85.64a4.2,4.2,0,0,0,.61-.9" transform="translate(-309.31 -274.95)"/><path class="cls-3" d="M317.79,406.08l4.71-4.22c20.19-16,50.51-4.41,54.92,20.88a36.29,36.29,0,0,1-1.27,17.67c-.1.51-.19.91-.29,1.41-.71,1.27-1.41,2.71-2.22,4.12-7.43,12.24-18.26,18.26-32.53,17.36a34,34,0,0,1-31.46-29.65,33.35,33.35,0,0,1,4.53-22.09c.79-1.5,1.8-2.8,2.7-4.31.3-.41.1-1.11.91-1.11" transform="translate(-309.31 -274.95)"/><path class="cls-2" d="M317.79,406.08c-.31.29-.31.9-.91,1a1.28,1.28,0,0,1,.6-1.26l.31.3" transform="translate(-309.31 -274.95)"/><path class="cls-4" d="M375.72,441.82c-.3-.6,0-1,.29-1.41l.31.3-.6,1.11" transform="translate(-309.31 -274.95)"/><path class="cls-5" d="M581.44,333.3c-23.35,0-42.71,18.23-42.71,41s19.36,41,42.71,41c12.53,0,21.64-4,29-11.41s9.69-17.66,9.69-26.2a23.37,23.37,0,0,0-.57-6.83H581.44v11.4h27.33a22,22,0,0,1-6.21,14.25,28,28,0,0,1-21.07,8.55,29.62,29.62,0,0,1,0-59.23h0a28.2,28.2,0,0,1,20.45,8l8-8C603.65,337.87,594.54,333.3,581.44,333.3Zm70,29.05a26.77,26.77,0,1,0,26.77,26.78h0a26.74,26.74,0,0,0-26.7-26.77h-.07m0,43.29c-8,0-14.8-6.84-14.8-16.48s6.83-16.48,14.8-16.48,14.81,6.83,14.81,16.48-6.83,16.48-14.81,16.48m57.56-43.29a26.77,26.77,0,1,0,26.76,26.78h0a26.39,26.39,0,0,0-26-26.77q-.37,0-.75,0m0,43.29c-8,0-14.81-6.84-14.81-16.48s6.83-16.48,14.81-16.48,14.8,6.26,14.8,16.48c.57,9.68-6.26,16.48-14.8,16.48m58.08-43.29c-13.09,0-25.63,11.41-25.63,26.77a26,26,0,0,0,25.63,26.19,18.66,18.66,0,0,0,14.18-6.26h.57v4.55c0,10.25-5.14,15.38-14.24,15.38-7.4,0-11.41-5.07-13.1-9.11l-10.25,4a25.4,25.4,0,0,0,23.35,15.38c13.67,0,25.05-8,25.05-27.89V363.49H781.88v4h-.57a23.43,23.43,0,0,0-14.24-5.07m1.14,42.72c-8,0-14.81-6.83-14.81-15.95s6.84-16.48,14.81-16.48,14.24,6.84,14.24,16.48-6.27,15.95-14.24,15.95m33-68.91h12v78.6h-12Zm42.71,26.19c-14.23,0-25.62,10.83-25.62,26.77a26.38,26.38,0,0,0,26,26.73h.78a26.64,26.64,0,0,0,22.82-12l-9.12-6.26a15,15,0,0,1-13.09,7.4c-6.27,0-10.26-2.85-13.1-8L869,382.29l-1.71-2.86c-2.28-5.69-9.12-17.08-23.35-17.08m-13.67,26.2a14.37,14.37,0,0,1,13.34-15.34c.3,0,.6,0,.9,0,4.56,0,9.11,2.28,10.25,5.69Z" transform="translate(-309.31 -274.95)"/><path class="cls-5" d="M893.52,414.17l26.76-72.26h10.24l26.78,72.32H947l-6.83-19.35H910l-6.84,19.35Zm19.93-28.47h23.92L926,353.24h-.57ZM967,407.91a27.32,27.32,0,0,1-6.83-18.79A28.35,28.35,0,0,1,967,370.27a21.31,21.31,0,0,1,16.48-7.4,18.71,18.71,0,0,1,9.69,2.28,18.26,18.26,0,0,1,6.83,6.26h.65l-.58-6.83V341.76h9.12v72.32h-8.54v-6.83H1000a24.15,24.15,0,0,1-6.83,6.26,18.68,18.68,0,0,1-9.68,2.28c-6.84,0-12-2.84-16.48-8m29-5.69a19.19,19.19,0,0,0,4.56-13.1,17.7,17.7,0,0,0-4.56-12.52,13.91,13.91,0,0,0-21.64,0A18.71,18.71,0,0,0,969.9,389a17.74,17.74,0,0,0,4.55,12.53c2.85,2.85,6.85,5.07,10.83,5.07a11.89,11.89,0,0,0,10.81-4.55m55.78,9.11a22.54,22.54,0,0,1-14.28,4.72,21.09,21.09,0,0,1-13.09-4c-3.42-2.86-6.34-5.71-8-10.26l8-3.41a15.43,15.43,0,0,0,5.07,6.83,12.56,12.56,0,0,0,7.4,2.27,15.89,15.89,0,0,0,7.41-1.7,4.69,4.69,0,0,0,2.84-4.56c0-2.84-2.27-5.69-7.41-6.83l-8.53-2.29c-9.63-2.29-14.18-6.85-14.18-14.26a12.28,12.28,0,0,1,5.69-10.81c3.41-2.85,8.54-4,13.66-4a30.55,30.55,0,0,1,12,2.85,21.23,21.23,0,0,1,7.4,8.54l-8,3.41a13,13,0,0,0-4.55-5.07c-2.29-1.71-4.56-1.71-7.41-1.71a11.43,11.43,0,0,0-6.26,1.71,5.8,5.8,0,0,0-2.85,4.55c0,2.86,2.85,5.07,8,5.71l7.4,1.7c9.69,2.23,14.25,7.35,14.25,14.82,1.14,5.07-1.14,9.11-4.55,12" transform="translate(-309.31 -274.95)"/></g></svg>