<svg id="Ebene_1" data-name="Ebene 1" xmlns="http://www.w3.org/2000/svg" viewBox="0 0 131.34 33.08"><defs><style>.cls-1{fill:#3c8bd9;}.cls-2{fill:#fabc04;}.cls-3{fill:#34a852;}.cls-4{fill:#e1c025;}.cls-5{fill:#757575;}</style></defs><path class="cls-1" d="M13.6,5.81a6.61,6.61,0,0,1,1.54-2.45,6.07,6.07,0,0,1,9.53,1.42c1.45,2.65,3,5.25,4.5,7.87l7.53,13.1a6,6,0,1,1-10.55,5.84L19.53,20.1a.94.94,0,0,0-.16-.23,2.52,2.52,0,0,1-.48-.72L14,10.71a6,6,0,0,1-.8-3.21,4.48,4.48,0,0,1,.38-1.69" transform="translate(-1.28 -1.65)"/><path class="cls-2" d="M13.6,5.81a8.61,8.61,0,0,0-.28,1.61,6.25,6.25,0,0,0,.88,3.42L19,19.14c.15.25.27.5.41.73L16.76,24.4l-3.69,6.36c-.06,0-.07,0-.08-.07a.8.8,0,0,1,0-.34,5.86,5.86,0,0,0-1.4-5.79A5.55,5.55,0,0,0,8.22,22.8a5.88,5.88,0,0,0-4.68,1.3c-.25.19-.41.46-.7.61a.11.11,0,0,1-.11-.07L4.82,21,13.5,6a1.4,1.4,0,0,1,.1-.16" transform="translate(-1.28 -1.65)"/><path class="cls-3" d="M2.79,24.68l.83-.74a6,6,0,0,1,9.64,3.66A6.39,6.39,0,0,1,13,30.7,2.27,2.27,0,0,1,13,31c-.13.23-.25.48-.39.72a5.87,5.87,0,0,1-5.72,3,6,6,0,0,1-5.53-5.22,5.82,5.82,0,0,1,.81-3.88c.14-.26.32-.49.48-.75.07-.06,0-.18.17-.18" transform="translate(-1.28 -1.65)"/><path class="cls-2" d="M2.79,24.68c-.06.06-.06.16-.16.18s.05-.16.1-.24l.06.06" transform="translate(-1.28 -1.65)"/><path class="cls-4" d="M13,31c-.06-.1,0-.17.06-.25l.06.06L13,31" transform="translate(-1.28 -1.65)"/><path class="cls-5" d="M49.14,11.86a7.39,7.39,0,0,0-7.47,7.24,7.37,7.37,0,0,0,7.47,7.22,6.77,6.77,0,0,0,5.12-2A6.41,6.41,0,0,0,56,19.68a5.81,5.81,0,0,0-.11-1.25H49.14v2h4.8a4.15,4.15,0,0,1-1.09,2.5,5,5,0,0,1-3.71,1.46,5.25,5.25,0,1,1,0-10.49,5,5,0,0,1,3.61,1.42l1.4-1.39A7,7,0,0,0,49.14,11.86ZM61.37,17a4.72,4.72,0,1,0,4.69,4.72A4.63,4.63,0,0,0,61.37,17m0,7.57a2.72,2.72,0,0,1-2.64-2.85,2.64,2.64,0,1,1,5.27,0,2.72,2.72,0,0,1-2.63,2.85M71.54,17a4.72,4.72,0,1,0,4.69,4.72A4.61,4.61,0,0,0,71.54,17m0,7.57a2.71,2.71,0,0,1-2.63-2.85,2.64,2.64,0,1,1,5.26,0,2.7,2.7,0,0,1-2.63,2.85M81.68,17a4.66,4.66,0,0,0,0,9.32,3.18,3.18,0,0,0,2.45-1.07h.07V26c0,1.78-.94,2.75-2.49,2.75a2.57,2.57,0,0,1-2.34-1.64l-1.81.74a4.43,4.43,0,0,0,4.15,2.75c2.42,0,4.44-1.42,4.44-4.85V17.36h-2v.74h-.07A3.18,3.18,0,0,0,81.68,17m.18,7.5a2.68,2.68,0,0,1-2.6-2.82,2.72,2.72,0,0,1,2.6-2.86,2.64,2.64,0,0,1,2.49,2.86,2.6,2.6,0,0,1-2.49,2.82m5.8-12.1h2.06V26.21H87.66V12.43ZM95.24,17a4.51,4.51,0,0,0-4.51,4.72,4.64,4.64,0,0,0,4.73,4.71,4.7,4.7,0,0,0,4-2.07L97.8,23.32a2.74,2.74,0,0,1-2.34,1.28,2.35,2.35,0,0,1-2.31-1.43l6.38-2.6L99.32,20a4.48,4.48,0,0,0-4.08-3M92.79,21.6a2.59,2.59,0,0,1,2.49-2.75,1.79,1.79,0,0,1,1.76,1L92.79,21.6Z" transform="translate(-1.28 -1.65)"/><path class="cls-5" d="M103.87,26.09l4.72-12.67h1.82l4.72,12.67h-1.79l-1.21-3.43h-5.26l-1.21,3.43Zm3.54-4.95h4.18l-2-5.7h-.07Zm9.37,3.9a4.77,4.77,0,0,1-1.18-3.28,4.92,4.92,0,0,1,1.18-3.29,3.72,3.72,0,0,1,2.89-1.33,3.79,3.79,0,0,1,1.72.39,2.93,2.93,0,0,1,1.21,1.09h.08l-.08-1.19v-4h1.61V26.09h-1.53V24.9h-.08A3.2,3.2,0,0,1,121.39,26a3.54,3.54,0,0,1-1.72.4A3.68,3.68,0,0,1,116.78,25m5.07-1a3.18,3.18,0,0,0,.79-2.27,3.17,3.17,0,0,0-.79-2.24,2.58,2.58,0,0,0-3.86,0,3.2,3.2,0,0,0-.78,2.24A3.2,3.2,0,0,0,118,24a2.57,2.57,0,0,0,1.93.86,2.28,2.28,0,0,0,1.93-.83m9.8,1.55a4,4,0,0,1-6.15-1.69l1.43-.62a2.7,2.7,0,0,0,.93,1.23,2.22,2.22,0,0,0,1.32.43,2.42,2.42,0,0,0,1.29-.32.92.92,0,0,0,.5-.79c0-.55-.43-1-1.25-1.23l-1.47-.36c-1.68-.44-2.5-1.23-2.5-2.46a2.3,2.3,0,0,1,1-1.91,4,4,0,0,1,2.43-.72,4.08,4.08,0,0,1,2.07.54,3,3,0,0,1,1.29,1.48l-1.43.61a2,2,0,0,0-.79-.86,2.33,2.33,0,0,0-1.25-.33,2.05,2.05,0,0,0-1.14.33.94.94,0,0,0-.5.79c0,.51.46.87,1.39,1.05l1.29.32c1.71.44,2.54,1.3,2.54,2.6a2.25,2.25,0,0,1-1,1.91" transform="translate(-1.28 -1.65)"/></svg>