<svg id="Ebene_1" data-name="Ebene 1" xmlns="http://www.w3.org/2000/svg" viewBox="0 0 471.29 166.55"><defs><style>.cls-1{fill:#95bf47;}.cls-2{fill:#5e8e3e;}.cls-3{fill:#fff;}</style></defs><path class="cls-1" d="M142,74a1.65,1.65,0,0,0-1.46-1.37c-.59-.09-13.45-1-13.45-1L117.3,61.8c-.88-1-2.84-.69-3.58-.49-.1,0-2,.59-5,1.58-3-8.56-8.21-16.42-17.43-16.42H90.5c-2.64-3.42-5.88-5-8.62-5-21.48.1-31.73,26.89-35,40.59l-15,4.61c-4.6,1.46-4.78,1.57-5.39,6L13.86,190.26,108.75,208l51.43-11.09c0-.1-18.06-122-18.15-123Zm-38.57-9.42c-2.39.78-5.15,1.57-8,2.46V65.23a39.1,39.1,0,0,0-2-13C98.26,53,101.49,58.36,103.45,64.54ZM87.66,53.35a40,40,0,0,1,2.15,14.39v.88L73.22,73.78c3.24-12.13,9.23-18.12,14.43-20.37Zm-6.37-6a5.06,5.06,0,0,1,2.74.88c-6.92,3.22-14.24,11.36-17.38,27.65l-13.12,4c3.7-12.36,12.34-32.58,27.75-32.58Z" transform="translate(-13.86 -41.47)"/><path class="cls-2" d="M140.56,72.59c-.59-.1-13.45-1-13.45-1l-9.81-9.81a1.91,1.91,0,0,0-1.37-.58L108.77,208l51.43-11.09L142,74.05a1.77,1.77,0,0,0-1.46-1.47Z" transform="translate(-13.86 -41.47)"/><path class="cls-3" d="M91.29,101,84.9,119.88a29.58,29.58,0,0,0-12.36-2.95c-10,0-10.5,6.28-10.5,7.86,0,8.57,22.47,11.87,22.47,32.09,0,15.89-10.1,26.1-23.65,26.1-16.29,0-24.63-10.11-24.63-10.11l4.33-14.43s8.53,7.36,15.8,7.36A6.42,6.42,0,0,0,63,159.63c0-.1,0-.21,0-.31,0-11.3-18.45-11.79-18.45-30.23,0-15.51,11.18-30.63,33.65-30.63C87.08,98.59,91.3,101,91.3,101Z" transform="translate(-13.86 -41.47)"/><path d="M204.83,129.11c-3.67-2-5.57-3.67-5.57-6,0-3,2.58-4.86,6.77-4.86a23.78,23.78,0,0,1,9,2l3.38-10.28s-3.1-2.4-12.19-2.4c-12.68,0-21.5,7.26-21.5,17.47,0,5.77,4.09,10.22,9.58,13.38,4.44,2.58,6,4.29,6,7s-2.18,4.93-6.34,4.93a28.31,28.31,0,0,1-11.9-3.17l-3.59,10.29s5.35,3.59,14.3,3.59c13,0,22.4-6.41,22.4-18,.07-6.27-4.65-10.64-10.31-13.95Zm52-21.63c-6.41,0-11.48,3-15.36,7.71l-.22-.07L246.81,86h-14.5l-14.09,74.19h14.51l4.86-25.37c1.9-9.57,6.86-15.5,11.48-15.5,3.23,0,4.51,2.19,4.51,5.36a33.65,33.65,0,0,1-.63,6.41l-5.5,29H262l5.71-30a54.23,54.23,0,0,0,1.05-9.42c-.07-8.17-4.37-13.1-11.9-13.1Zm44.66,0c-17.47,0-29,15.78-29,33.27,0,11.28,7,20.29,20,20.29,17.14,0,28.74-15.36,28.74-33.27,0-10.43-6.12-20.29-19.7-20.29ZM294.36,150c-4.93,0-7-4.22-7-9.42,0-8.31,4.28-21.91,12.19-21.91,5.14,0,6.86,4.44,6.86,8.74,0,8.93-4.31,22.59-12,22.59Zm64-42.48C348.49,107.48,343,116,343,116h-.22l.86-7.71H330.76l-3,19.24-10.07,53.12h14.45l4-21.49h.28s2.95,1.91,8.53,1.91c17.05,0,28.18-17.48,28.18-35.13.07-9.73-4.29-18.46-14.87-18.46Zm-13.88,42.69a9,9,0,0,1-6-2.12l2.4-13.6c1.72-9,6.41-15.08,11.48-15.08,4.44,0,5.78,4.09,5.78,8,0,9.45-5.53,22.84-13.64,22.84ZM394,86.62a8.27,8.27,0,0,0-5.92,2.45A8.06,8.06,0,0,0,385.72,95c0,4.29,2.76,7.27,6.86,7.27h.22a8.21,8.21,0,0,0,8.52-7.87c0-.18,0-.35,0-.52a6.89,6.89,0,0,0-7.26-7.27ZM373.71,160h14.52l9.86-51.41H383.52m51.55-.07H424.94l.49-2.4c.86-4.94,3.81-9.38,8.57-9.38a15.56,15.56,0,0,1,4.65.71l2.81-11.36s-2.58-1.26-7.9-1.26a21.65,21.65,0,0,0-14.23,4.86c-4.93,4.21-7.26,10.28-8.43,16.41l-.47,2.4h-6.77l-2.11,10.92h6.76l-7.72,40.59h14.57l7.71-40.59h10l2-10.92Zm34.95.07L456.85,144h-.22L453,108.63h-15.3l8.74,47.2a3.33,3.33,0,0,1-.28,2.4,25,25,0,0,1-7.89,8.74,32.87,32.87,0,0,1-8.17,4.08l4,12.33a33.1,33.1,0,0,0,14.2-7.92c6.63-6.2,12.75-15.78,19-28.82l17.75-38H470Z" transform="translate(-13.86 -41.47)"/></svg>