<svg id="layer" xmlns="http://www.w3.org/2000/svg" viewBox="0 0 724.46 146.08"><defs><style>.cls-1{fill:#945c87;}.cls-1,.cls-2,.cls-3{fill-rule:evenodd;}.cls-2{fill:#fff;}</style></defs><path class="cls-1" d="M54.58,67.07A23,23,0,0,1,75.22,53.19H274.89a22.82,22.82,0,0,1,23.3,22.34q0,.48,0,1V153c-.12,11.47-10.14,21.85-21.61,22.09-24.26.12-48.53,0-72.79,0,3.26,8.09,6.52,16.06,9.78,24.15-14.49-8-28.73-16.18-43.34-24-31.87-.24-63.86,0-95.85-.12-11.47-.36-21.49-10.62-21.61-22.09-.12-25,0-50-.12-74.84a26.88,26.88,0,0,1,1.93-11.11" transform="translate(-52.63 -53.18)"/><path class="cls-2" d="M152.12,68.88c3.62-3.86,10.62-2.66,13.4,1.81a8.23,8.23,0,0,1,.36,7.85c-5.07,10.14-7.24,21.37-9.17,32.35-2.3,14.37-4.23,29-3.5,43.58.24,3.74-1.57,8.21-5.56,9.18-3.74.84-7.24-1.69-9.65-4.35-10.87-11.71-17-26.8-21.49-41.89-4.47,8.81-8.93,17.75-13.28,26.56-3,6-6.28,12.19-11.11,17-2.05,2-5.55,3.86-8.21,1.81-4-3.5-5-9.05-6.64-13.76-6.39-22.09-10-44.91-13.76-67.6-.84-3.75.73-8.33,4.47-9.78,3-1.09,7-1.33,9.54,1,1.81,1.57,2.29,4.11,2.65,6.4,2.66,17.63,5.68,35.13,10,52.39,7.24-13.76,14.49-27.52,21.73-41.4a13.48,13.48,0,0,1,4.35-5.32,7.11,7.11,0,0,1,8.81.85c1.81,1.93,2.53,4.71,3,7.24a188,188,0,0,0,9.29,33.44c1.81-16.29,4.11-32.83,10-48.16,1.33-3.26,2.54-6.52,4.71-9.18m40.93,8.81c7.84-1,16.29,1.69,21.6,7.61A33.44,33.44,0,0,1,222.26,103a54.82,54.82,0,0,1-6,32.36c-3,5.55-6.88,11-12.43,14.24-8.09,5-18.95,4.35-26.8-.84-6.28-4.35-9.78-11.59-11.23-18.84-2.89-16.53,2.05-34.88,14.49-46.35a23.66,23.66,0,0,1,12.8-5.92m1.56,16.9c-3.74,1.21-6.15,4.71-8.2,7.85-5.07,8.21-6.52,19-2.42,27.77,1.09,2.29,2.78,4.83,5.55,5.31s5.56-1.21,7.61-3c4.59-4,6.88-9.9,8.09-15.81,1.2-6.64.6-14-3.26-19.8a6.8,6.8,0,0,0-7.37-2.3m61.09-16.9c7.6-1,15.93,1.45,21.25,7.13A32.69,32.69,0,0,1,285,103.89,54.54,54.54,0,0,1,279.12,135c-3,5.67-7,11.22-12.8,14.6-7.72,4.71-18.11,4.23-25.83-.36-5.19-3.14-8.69-8.45-10.75-14.12-5.43-17.27-.84-37.55,11.71-50.59a26.88,26.88,0,0,1,14.25-6.88m1.69,16.9c-4.11,1.45-6.52,5.44-8.69,8.94-4.59,8.09-5.8,18.59-1.57,27.16,1.08,2.41,3.14,4.71,5.91,4.83,3,.12,5.68-1.81,7.85-3.86,4.71-4.59,6.76-11.11,7.48-17.51a25.27,25.27,0,0,0-3.74-17.38,6.69,6.69,0,0,0-7.24-2.18" transform="translate(-52.63 -53.18)"/><path class="cls-3" d="M339.48,80a46,46,0,0,1,20.28.24v16.3c-5.43-1.33-11.59-2.54-16.78,0-6.28,3.13-9.78,10.26-9.78,17-.36,6.76,1.93,14.36,8,18.23,5.55,3.62,12.67,2.89,18.71,1.2v16.3a40.34,40.34,0,0,1-24.75-.84,33.26,33.26,0,0,1-19.8-21.37,45.36,45.36,0,0,1-.72-22.7A33.39,33.39,0,0,1,339.48,80m49-.85c8.21-1,17.14.36,23.78,5.55,6.4,5,9.54,13,10.75,20.77,1.08,8.57.84,17.5-1.81,25.71-2.3,7-7,13.52-13.77,16.78s-15,3.5-22.33,1.81a25.08,25.08,0,0,1-16.18-12.19c-4.7-8.21-5.55-18-5.19-27.28.37-8,2.42-16.3,7.73-22.46a26.8,26.8,0,0,1,17-8.69M391,94.71c-3.51.85-5.56,4.35-6.4,7.61-1.69,6.52-1.45,13.28-1,19.92.48,3.62.85,7.48,3.38,10.38,3.38,3.86,10.26,3.38,13.28-.6,2.05-2.54,2.66-5.8,3-8.94a60.46,60.46,0,0,0,0-16.78c-.6-3.38-1.57-6.88-4-9.41A8.87,8.87,0,0,0,391,94.71M713,80.23a47.26,47.26,0,0,1,21.36-.12c.12,5.43,0,10.86.12,16.42-5.31-1.33-11.22-2.54-16.41-.25-6,2.78-9.66,9.18-10.14,15.58-.73,7.24,1.2,15.45,7.6,19.67,5.55,3.87,12.8,3.14,19,1.33-.12,5.43.12,11-.12,16.42a41,41,0,0,1-26.07-1.57,33.15,33.15,0,0,1-18.47-21.49,45,45,0,0,1-.36-22.33C692.1,92.54,701.64,83.25,713,80.23m-279.23.48h23.3c2.78,12.56,5.43,25.23,7.85,37.91,2.17-12.8,5.19-25.35,8.21-37.91H497q4.71,34.23,9.17,68.33H488c-1.69-15.57-3.13-31.27-4.95-46.84-3.74,15.57-7.6,31.27-11.34,46.84H459.23c-4-15.57-7.84-31.27-12-47-1.57,15.57-3.14,31.27-4.71,47h-17.5q4.35-34,8.69-68.33m83.54,0h23.3c2.77,12.56,5.43,25.23,7.84,37.91,2.3-12.68,5.2-25.35,8.21-37.91h23.79q4.69,34.23,9.17,68.33H571.38c-1.69-15.57-3.26-31.27-5-46.84-3.74,15.57-7.48,31.27-11.35,46.84H542.65c-4-15.69-8-31.27-11.95-47-1.57,15.69-3.14,31.27-4.71,47h-17.5q4.51-34,8.81-68.33m77.62.24c12.44-.24,25,0,37.42-.12V95.44c-6.27.12-12.55,0-18.83,0V108h16.3v14.13h-16.3v12.55h19v14.61H595c-.12-22.82.12-45.51-.12-68.33m42.74-.24c7.84,0,15.57-.12,23.42,0,7.36.24,15.21,2.05,20.64,7.24a18.57,18.57,0,0,1,4.71,18.6,19.36,19.36,0,0,1-10.26,11.71c4.82,10.26,9.77,20.52,14.72,30.78H671.46c-5.07-10.5-10-21-15.21-31.39-.12,10.5,0,21,0,31.39H637.78c-.12-22.7-.12-45.51-.12-68.33m18.47,13.16v16.3c3.38-.24,7-.37,9.77-2.42,3.26-2.41,2.9-7.36.85-10.5-2.54-3-7-3-10.62-3.38m83.53-13H777V95.44H758V108h16.3v14.13H758v12.55h19.08v14.61H739.66c-.12-22.94,0-45.75,0-68.45" transform="translate(-52.63 -53.18)"/></svg>